HIERARCHY
ROOT Hips
{
     OFFSET 1.88212 96.90440 -13.34250
     CHANNELS 6 Xposition Yposition Zposition Zrotation Xrotation Yrotation
     JOINT Spine
     {
          OFFSET 0.00000 11.89050 0.00000
          CHANNELS 3 Zrotation Xrotation Yrotation
          JOINT Spine1
          {
               OFFSET -0.00000 25.65740 0.12766
               CHANNELS 3 Zrotation Xrotation Yrotation
               JOINT HEad
               {
                    OFFSET 0.00000 8.73416 0.01134
                    CHANNELS 3 Zrotation Xrotation Yrotation
                    End Site
                    {
                         OFFSET -0.29000 12.77420 2.51395
                    }
               }
               JOINT LeftShoulder1
               {
                    OFFSET 8.99000 -0.36225 -0.22000
                    CHANNELS 3 Zrotation Xrotation Yrotation
                    JOINT LeftArm
                    {
                         OFFSET 10.28270 -0.00338 0.32212
                         CHANNELS 3 Zrotation Xrotation Yrotation
                         JOINT LeftForeArm
                         {
                              OFFSET 32.76690 0.09914 -1.42434
                              CHANNELS 3 Zrotation Xrotation Yrotation
                              JOINT LeftHand
                              {
                                   OFFSET 27.56430 0.08536 1.02216
                                   CHANNELS 3 Zrotation Xrotation Yrotation
                                   End Site
                                   {
                                        OFFSET 16.74430 -0.60000 1.50291
                                   }
                              }
                         }
                    }
               }
               JOINT RightShoulder
               {
                    OFFSET -8.99000 -0.36225 -0.22000
                    CHANNELS 3 Zrotation Xrotation Yrotation
                    JOINT RightArm
                    {
                         OFFSET -10.28270 -0.00338 0.32212
                         CHANNELS 3 Zrotation Xrotation Yrotation
                         JOINT RightForeArm
                         {
                              OFFSET -32.89710 0.09914 -1.42434
                              CHANNELS 3 Zrotation Xrotation Yrotation
                              JOINT RightHand
                              {
                                   OFFSET -27.49210 0.08536 1.02216
                                   CHANNELS 3 Zrotation Xrotation Yrotation
                                   End Site
                                   {
                                        OFFSET -16.63120 -0.60000 1.50291
                                   }
                              }
                         }
                    }
               }
          }
     }
     JOINT LeftUpLeg
     {
          OFFSET 8.94580 -8.66707 0.10165
          CHANNELS 3 Zrotation Xrotation Yrotation
          JOINT LeftLeg
          {
               OFFSET 0.00000 -44.42270 1.37270
               CHANNELS 3 Zrotation Xrotation Yrotation
               JOINT LeftFoot
               {
                    OFFSET -0.25355 -42.09240 -1.46059
                    CHANNELS 3 Zrotation Xrotation Yrotation
                    JOINT LeftToes
                    {
                         OFFSET -0.04000 -4.41509 8.49910
                         CHANNELS 3 Zrotation Xrotation Yrotation
                         End Site
                         {
                              OFFSET 0.08000 -0.04745 9.77979
                         }
                    }
               }
          }
     }
     JOINT RightUpLeg
     {
          OFFSET -8.94580 -8.66707 0.10165
          CHANNELS 3 Zrotation Xrotation Yrotation
          JOINT RightLeg
          {
               OFFSET 0.00000 -44.42270 1.37270
               CHANNELS 3 Zrotation Xrotation Yrotation
               JOINT RightFoot
               {
                    OFFSET 0.25355 -42.09240 -1.46059
                    CHANNELS 3 Zrotation Xrotation Yrotation
                    JOINT RightToes
                    {
                         OFFSET 0.04000 -4.41509 8.49910
                         CHANNELS 3 Zrotation Xrotation Yrotation
                         End Site
                         {
                              OFFSET -0.08000 -0.13745 9.77979
                         }
                    }
               }
          }
     }
}
MOTION
Frames: 12
Frame Time: 0.01667
48.86222 88.63457 365.41635 -8.39509 -12.55118 -35.88067 -10.20479 24.87347 0.77661 -0.00375 0.00758 -0.00216 -13.30974 23.40013 14.72446 -2.50471 9.27861 1.63487 -147.11211 -56.54084 -117.62539 -11.84090 67.16261 -105.98927 16.69196 9.14029 -3.34001 14.90573 10.05470 -0.76299 85.44028 -1.68400 75.40741 -14.34001 24.90713 111.59473 15.00195 10.92713 7.95607 20.88548 -7.26954 -23.97298 -27.10089 12.93954 60.54317 -6.47738 0.01239 0.00322 5.38228 -11.02026 -53.66645 -28.21073 17.61225 22.22993 45.10788 -1.60313 -40.82140 -4.55897 -0.00156 0.00008 -23.61054 -40.70891 12.99679 
48.63145 88.69628 365.05850 -8.17823 -12.61573 -35.74986 -10.28142 24.84266 0.73237 -0.00411 0.00760 -0.00230 -13.51080 23.13131 15.00032 -2.68804 9.14950 1.56513 -147.44814 -56.58913 -118.11192 -12.12928 67.34643 -105.93278 16.78334 9.12166 -3.28929 14.69508 9.89731 -0.85710 85.56208 -1.64311 75.59155 -14.19355 24.97808 111.59502 14.94612 10.94956 7.77065 20.41795 -7.19063 -23.48737 -27.17171 13.36421 60.15117 -6.48221 0.01055 0.00336 5.38930 -11.67243 -53.27016 -28.14566 17.42505 21.38326 45.15814 -1.02248 -40.49391 -3.71034 -0.00184 0.00026 -24.65495 -40.80648 12.80581 
48.43496 88.75729 364.73187 -7.92875 -12.67538 -35.61692 -10.40261 24.79861 0.69962 -0.00431 0.00766 -0.00233 -13.64573 22.87450 15.16621 -2.84689 9.03164 1.48528 -147.73421 -56.61508 -118.54653 -12.33553 67.50450 -105.89538 16.89249 9.10603 -3.26039 14.50602 9.75316 -0.93492 85.70274 -1.61183 75.78960 -14.06985 25.06497 111.58951 14.88859 10.95798 7.59013 19.89167 -7.12108 -22.99177 -27.19033 13.78401 59.85835 -6.44743 0.00958 0.00312 5.39724 -12.22000 -52.93112 -28.10585 17.16822 20.60703 45.17815 -0.40907 -40.21792 -2.80312 -0.00213 0.00043 -25.74425 -40.87760 12.54583 
48.27790 88.82335 364.45334 -7.65114 -12.73223 -35.49001 -10.56902 24.74481 0.68503 -0.00429 0.00770 -0.00233 -13.71953 22.62594 15.23292 -2.96992 8.92137 1.40077 -147.96709 -56.62746 -118.91122 -12.44420 67.63811 -105.88853 17.01105 9.09098 -3.25125 14.35713 9.61635 -1.00885 85.84174 -1.57294 75.98780 -13.97332 25.15817 111.57858 14.82215 10.96716 7.42139 19.38380 -7.12020 -22.48164 -26.87513 14.09708 59.53635 -6.46199 0.00175 0.00055 5.41564 -12.23007 -52.68940 -28.10491 16.85566 19.91372 45.16381 0.22912 -39.98583 -1.82993 -0.00240 0.00057 -26.86353 -40.94199 12.24361 
48.16344 88.89959 364.23318 -7.35324 -12.78613 -35.37455 -10.77312 24.68415 0.69011 -0.00408 0.00766 -0.00234 -13.73829 22.38206 15.21395 -3.05245 8.81414 1.31248 -148.15652 -56.64117 -119.20757 -12.46349 67.74819 -105.91302 17.12672 9.07055 -3.25670 14.26343 9.48119 -1.08537 85.96140 -1.51902 76.17048 -13.90875 25.24750 111.56755 14.74419 10.97982 7.27169 18.91683 -7.19347 -21.96715 -26.38814 14.34926 59.20223 -6.51529 0.00079 0.00038 5.43321 -11.87460 -52.57702 -28.15043 16.50037 19.31006 45.11372 0.88288 -39.79152 -0.78887 -0.00261 0.00067 -28.00050 -41.01311 11.91425 
48.09182 88.98334 364.07037 -7.04350 -12.83510 -35.27526 -11.00502 24.61823 0.71461 -0.00372 0.00756 -0.00241 -13.70712 22.13901 15.12448 -3.09550 8.70728 1.21968 -148.31895 -56.67017 -119.44843 -12.41862 67.83643 -105.95821 17.23208 9.03769 -3.27341 14.23221 9.34443 -1.16774 86.05241 -1.44874 76.32350 -13.87964 25.32729 111.56451 14.66004 10.99695 7.14506 18.47958 -7.31874 -21.46351 -25.86842 14.57459 58.87566 -6.58172 0.00008 0.00038 5.43719 -11.37096 -52.57079 -28.24081 16.11347 18.79868 45.02706 1.54044 -39.63152 0.31497 -0.00276 0.00072 -29.14705 -41.09595 11.56520 
48.06430 89.07164 363.95291 -6.73453 -12.87620 -35.19443 -11.25791 24.53377 0.74052 -0.00458 0.00432 -0.00641 -13.63212 21.91066 15.00826 -3.12167 8.62011 1.09314 -148.50743 -56.73178 -119.70581 -12.26952 67.92249 -106.04627 17.33162 8.98498 -3.30978 13.97876 9.22978 -1.76188 86.35667 -0.94874 76.65244 -13.33217 24.79134 112.44721 13.57131 9.68759 7.74804 18.05715 -7.47025 -20.98753 -25.38879 14.78969 58.56543 -6.64375 -0.00039 0.00033 5.45966 -10.85719 -52.66426 -28.36340 15.70315 18.37851 44.90640 2.18907 -39.50811 1.46986 -0.00282 0.00072 -30.29373 -41.18822 11.21017 
48.08458 89.16434 363.86646 -6.44138 -12.90778 -35.13311 -11.51658 24.42896 0.75643 -0.00449 -0.00086 -0.00890 -13.51754 21.70275 14.88328 -3.10125 8.56200 0.98775 -148.71245 -56.80907 -119.93478 -12.10658 68.00772 -106.10297 17.42537 8.91384 -3.37016 13.68809 9.15365 -2.59770 86.68930 -0.33016 77.07357 -12.38430 23.86116 114.01159 14.74755 8.80568 5.94774 17.63990 -7.62667 -20.55398 -24.97056 14.99584 58.27299 -6.69123 -0.00063 0.00027 5.50155 -10.41651 -52.78467 -28.50071 15.27479 18.04751 44.75715 2.81517 -39.42863 2.66008 -0.00277 0.00064 -31.42328 -41.28797 10.88131 
48.15546 89.25391 363.78583 -6.17880 -12.94063 -35.09089 -11.71223 24.25672 0.73553 -0.01090 0.00104 -0.00819 -13.22350 21.49266 14.68110 -3.05438 8.59065 0.80482 -149.05748 -56.90782 -120.29008 -11.98450 68.08707 -106.00105 17.51854 8.82551 -3.47538 13.19462 9.17861 -3.22476 87.33695 0.57345 77.91756 -11.89945 23.37839 115.14336 14.42429 7.91020 4.24799 17.21981 -7.76788 -20.17670 -24.61183 15.18590 57.99957 -6.71719 -0.00069 0.00019 5.56564 -10.07591 -52.88008 -28.63964 14.83617 17.80615 44.58872 3.40498 -39.40634 3.86505 -0.00262 0.00045 -32.51754 -41.40067 10.62054 
48.28444 89.33122 363.68640 -5.96284 -12.99167 -35.06903 -11.84373 23.99252 0.68376 -0.01178 0.00527 -0.00636 -12.88190 21.18854 14.47277 -2.98796 8.75809 0.53703 -149.52258 -56.99159 -120.77187 -11.90963 68.15934 -105.66330 17.60075 8.72361 -3.62229 12.85269 9.34856 -3.56422 87.86404 1.34988 78.81047 -11.66304 23.04428 116.01092 15.25894 7.12192 2.78937 16.79967 -7.88158 -19.86337 -24.30565 15.35119 57.75119 -6.71600 -0.00061 0.00009 5.64321 -9.84390 -52.92097 -28.77495 14.39740 17.65919 44.41547 3.94470 -39.45425 5.06499 -0.00242 0.00013 -33.56756 -41.53098 10.45975 
48.47766 89.38078 363.55487 -5.80692 -13.07614 -35.06824 -11.90718 23.66391 0.60508 -0.01620 0.00930 -0.00483 -12.43724 20.92875 14.24577 -2.87644 9.05790 0.22478 -150.04568 -57.02170 -121.31079 -11.91960 68.21478 -105.02922 17.66855 8.61032 -3.81382 12.43674 9.66208 -3.72135 88.55416 2.41862 79.92590 -12.06067 23.22261 116.38995 14.35325 6.42110 1.29472 16.38925 -7.96390 -19.61428 -24.04515 15.48450 57.53830 -6.68331 -0.00048 -0.00005 5.73265 -9.71848 -52.92149 -28.90926 13.96887 17.61057 44.25502 4.42268 -39.57947 6.24528 -0.00224 -0.00029 -34.57408 -41.66880 10.40601 
48.73972 89.39284 363.40173 -5.72049 -13.19523 -35.08845 -11.94225 23.31271 0.52711 -0.01141 0.01310 -0.00260 -12.03660 20.59576 14.03952 -2.72046 9.45507 -0.06895 -150.50906 -56.98418 -121.78487 -11.99857 68.24970 -104.17107 17.71096 8.49399 -4.01748 12.31337 10.06800 -3.61832 88.89905 2.91025 80.82692 -12.14137 23.14563 116.31507 14.97535 6.03718 0.50264 16.00241 -8.01694 -19.42060 -23.82459 15.58135 57.37159 -6.61630 -0.00043 -0.00025 5.83585 -9.69900 -52.91516 -29.04810 13.55928 17.65873 44.12449 4.83052 -39.77609 7.40166 -0.00217 -0.00078 -35.54385 -41.78934 10.43478 
